<mxfile host="Electron" modified="2025-01-21T06:38:44.953Z" agent="Mozilla/5.0 (Windows NT 10.0; Win64; x64) AppleWebKit/537.36 (KHTML, like Gecko) draw.io/22.1.15 Chrome/120.0.6099.109 Electron/28.1.0 Safari/537.36" etag="KnDFASg_EiWppWz5yW3j" version="22.1.15" type="device">
  <diagram name="Page-1" id="IkXvsx2_4CfdxfukK0sY">
    <mxGraphModel dx="3006" dy="1471" grid="1" gridSize="10" guides="1" tooltips="1" connect="1" arrows="1" fold="1" page="0" pageScale="1" pageWidth="1700" pageHeight="2000" math="0" shadow="0">
      <root>
        <mxCell id="0" />
        <mxCell id="1" parent="0" />
        <mxCell id="OIi_gZhFxdTAYNqeT_0--48" style="edgeStyle=orthogonalEdgeStyle;shape=connector;rounded=0;jumpStyle=arc;orthogonalLoop=1;jettySize=auto;html=1;exitX=1;exitY=0.5;exitDx=0;exitDy=0;exitPerimeter=0;entryX=0;entryY=0.5;entryDx=0;entryDy=0;labelBackgroundColor=default;strokeColor=default;align=center;verticalAlign=middle;fontFamily=Helvetica;fontSize=11;fontColor=default;endArrow=none;endFill=0;" edge="1" parent="1" source="OIi_gZhFxdTAYNqeT_0--1" target="OIi_gZhFxdTAYNqeT_0--3">
          <mxGeometry relative="1" as="geometry" />
        </mxCell>
        <mxCell id="OIi_gZhFxdTAYNqeT_0--1" value="" style="verticalLabelPosition=bottom;shadow=0;dashed=0;align=center;html=1;verticalAlign=top;shape=mxgraph.electrical.abstract.multiplier;" vertex="1" parent="1">
          <mxGeometry x="200" y="170" width="50" height="50" as="geometry" />
        </mxCell>
        <mxCell id="OIi_gZhFxdTAYNqeT_0--2" value="" style="verticalLabelPosition=bottom;shadow=0;dashed=0;align=center;html=1;verticalAlign=top;shape=mxgraph.electrical.abstract.multiplier;" vertex="1" parent="1">
          <mxGeometry x="200" y="810" width="50" height="50" as="geometry" />
        </mxCell>
        <mxCell id="OIi_gZhFxdTAYNqeT_0--3" value="LPF" style="rounded=0;whiteSpace=wrap;html=1;" vertex="1" parent="1">
          <mxGeometry x="950" y="165" width="120" height="60" as="geometry" />
        </mxCell>
        <mxCell id="OIi_gZhFxdTAYNqeT_0--4" value="LPF" style="rounded=0;whiteSpace=wrap;html=1;" vertex="1" parent="1">
          <mxGeometry x="950" y="805" width="120" height="60" as="geometry" />
        </mxCell>
        <mxCell id="OIi_gZhFxdTAYNqeT_0--46" style="edgeStyle=orthogonalEdgeStyle;shape=connector;rounded=0;jumpStyle=arc;orthogonalLoop=1;jettySize=auto;html=1;exitX=0;exitY=0.5;exitDx=0;exitDy=0;exitPerimeter=0;entryX=1;entryY=0.25;entryDx=0;entryDy=0;labelBackgroundColor=default;strokeColor=default;align=center;verticalAlign=middle;fontFamily=Helvetica;fontSize=11;fontColor=default;endArrow=none;endFill=0;" edge="1" parent="1" source="OIi_gZhFxdTAYNqeT_0--5" target="OIi_gZhFxdTAYNqeT_0--10">
          <mxGeometry relative="1" as="geometry">
            <Array as="points">
              <mxPoint x="1320" y="515" />
              <mxPoint x="1320" y="607" />
            </Array>
          </mxGeometry>
        </mxCell>
        <mxCell id="OIi_gZhFxdTAYNqeT_0--50" style="edgeStyle=orthogonalEdgeStyle;shape=connector;rounded=0;jumpStyle=arc;orthogonalLoop=1;jettySize=auto;html=1;exitX=0.5;exitY=1;exitDx=0;exitDy=0;exitPerimeter=0;entryX=1;entryY=0.5;entryDx=0;entryDy=0;labelBackgroundColor=default;strokeColor=default;align=center;verticalAlign=middle;fontFamily=Helvetica;fontSize=11;fontColor=default;endArrow=none;endFill=0;" edge="1" parent="1" source="OIi_gZhFxdTAYNqeT_0--5" target="OIi_gZhFxdTAYNqeT_0--4">
          <mxGeometry relative="1" as="geometry" />
        </mxCell>
        <mxCell id="OIi_gZhFxdTAYNqeT_0--5" value="" style="verticalLabelPosition=bottom;shadow=0;dashed=0;align=center;html=1;verticalAlign=top;shape=mxgraph.electrical.abstract.multiplier;" vertex="1" parent="1">
          <mxGeometry x="1420" y="490" width="50" height="50" as="geometry" />
        </mxCell>
        <mxCell id="OIi_gZhFxdTAYNqeT_0--8" value="" style="group" vertex="1" connectable="0" parent="1">
          <mxGeometry x="1290" y="364.94" width="80" height="90" as="geometry" />
        </mxCell>
        <mxCell id="OIi_gZhFxdTAYNqeT_0--6" value="integral_error&lt;br&gt;_reg" style="rounded=0;whiteSpace=wrap;html=1;" vertex="1" parent="OIi_gZhFxdTAYNqeT_0--8">
          <mxGeometry width="80" height="90" as="geometry" />
        </mxCell>
        <mxCell id="OIi_gZhFxdTAYNqeT_0--7" value="" style="triangle;whiteSpace=wrap;html=1;rotation=-180;" vertex="1" parent="OIi_gZhFxdTAYNqeT_0--8">
          <mxGeometry x="60" y="50" width="20" height="30" as="geometry" />
        </mxCell>
        <mxCell id="OIi_gZhFxdTAYNqeT_0--9" value="" style="group" vertex="1" connectable="0" parent="1">
          <mxGeometry x="1290" y="584.94" width="80" height="90" as="geometry" />
        </mxCell>
        <mxCell id="OIi_gZhFxdTAYNqeT_0--10" value="phase_error&lt;br&gt;_reg" style="rounded=0;whiteSpace=wrap;html=1;" vertex="1" parent="OIi_gZhFxdTAYNqeT_0--9">
          <mxGeometry width="80" height="90" as="geometry" />
        </mxCell>
        <mxCell id="OIi_gZhFxdTAYNqeT_0--11" value="" style="triangle;whiteSpace=wrap;html=1;rotation=-180;" vertex="1" parent="OIi_gZhFxdTAYNqeT_0--9">
          <mxGeometry x="60" y="50" width="20" height="30" as="geometry" />
        </mxCell>
        <mxCell id="OIi_gZhFxdTAYNqeT_0--12" value="" style="verticalLabelPosition=bottom;verticalAlign=top;html=1;shape=mxgraph.flowchart.summing_function;" vertex="1" parent="1">
          <mxGeometry x="1235" y="499.94" width="50" height="50" as="geometry" />
        </mxCell>
        <mxCell id="OIi_gZhFxdTAYNqeT_0--13" style="edgeStyle=orthogonalEdgeStyle;rounded=0;orthogonalLoop=1;jettySize=auto;html=1;exitDx=0;exitDy=0;entryX=0.855;entryY=0.855;entryDx=0;entryDy=0;entryPerimeter=0;endArrow=none;endFill=0;" edge="1" parent="1" source="OIi_gZhFxdTAYNqeT_0--19" target="OIi_gZhFxdTAYNqeT_0--12">
          <mxGeometry relative="1" as="geometry" />
        </mxCell>
        <mxCell id="OIi_gZhFxdTAYNqeT_0--14" style="edgeStyle=orthogonalEdgeStyle;shape=connector;rounded=0;orthogonalLoop=1;jettySize=auto;html=1;exitDx=0;exitDy=0;entryX=0.855;entryY=0.145;entryDx=0;entryDy=0;entryPerimeter=0;labelBackgroundColor=default;strokeColor=default;align=center;verticalAlign=middle;fontFamily=Helvetica;fontSize=11;fontColor=default;endArrow=none;endFill=0;" edge="1" parent="1" source="OIi_gZhFxdTAYNqeT_0--21" target="OIi_gZhFxdTAYNqeT_0--12">
          <mxGeometry relative="1" as="geometry" />
        </mxCell>
        <mxCell id="OIi_gZhFxdTAYNqeT_0--15" value="" style="shape=waypoint;sketch=0;fillStyle=solid;size=6;pointerEvents=1;points=[];fillColor=none;resizable=0;rotatable=0;perimeter=centerPerimeter;snapToPoint=1;fontFamily=Helvetica;fontSize=11;fontColor=default;" vertex="1" parent="1">
          <mxGeometry x="1150" y="514.94" width="20" height="20" as="geometry" />
        </mxCell>
        <mxCell id="OIi_gZhFxdTAYNqeT_0--16" style="edgeStyle=orthogonalEdgeStyle;shape=connector;rounded=0;orthogonalLoop=1;jettySize=auto;html=1;exitX=0.145;exitY=0.145;exitDx=0;exitDy=0;exitPerimeter=0;entryX=0.75;entryY=0.6;entryDx=0;entryDy=0;entryPerimeter=0;labelBackgroundColor=default;strokeColor=default;align=center;verticalAlign=middle;fontFamily=Helvetica;fontSize=11;fontColor=default;endArrow=none;endFill=0;" edge="1" parent="1" source="OIi_gZhFxdTAYNqeT_0--12" target="OIi_gZhFxdTAYNqeT_0--15">
          <mxGeometry relative="1" as="geometry" />
        </mxCell>
        <mxCell id="OIi_gZhFxdTAYNqeT_0--18" style="edgeStyle=orthogonalEdgeStyle;shape=connector;rounded=0;jumpStyle=arc;orthogonalLoop=1;jettySize=auto;html=1;exitX=1;exitY=0.25;exitDx=0;exitDy=0;entryX=0.517;entryY=0.333;entryDx=0;entryDy=0;entryPerimeter=0;labelBackgroundColor=default;strokeColor=default;align=center;verticalAlign=middle;fontFamily=Helvetica;fontSize=11;fontColor=default;endArrow=none;endFill=0;" edge="1" parent="1" source="OIi_gZhFxdTAYNqeT_0--6" target="OIi_gZhFxdTAYNqeT_0--15">
          <mxGeometry relative="1" as="geometry">
            <Array as="points">
              <mxPoint x="1370" y="393" />
              <mxPoint x="1400" y="393" />
              <mxPoint x="1400" y="320" />
              <mxPoint x="1160" y="320" />
            </Array>
          </mxGeometry>
        </mxCell>
        <mxCell id="OIi_gZhFxdTAYNqeT_0--20" value="" style="edgeStyle=orthogonalEdgeStyle;rounded=0;orthogonalLoop=1;jettySize=auto;html=1;exitX=0;exitY=0.25;exitDx=0;exitDy=0;entryDx=0;entryDy=0;entryPerimeter=0;endArrow=none;endFill=0;" edge="1" parent="1" source="OIi_gZhFxdTAYNqeT_0--10" target="OIi_gZhFxdTAYNqeT_0--19">
          <mxGeometry relative="1" as="geometry">
            <mxPoint x="1350" y="632.94" as="sourcePoint" />
            <mxPoint x="1225" y="549.94" as="targetPoint" />
            <Array as="points">
              <mxPoint x="1280" y="607" />
              <mxPoint x="1280" y="630" />
            </Array>
          </mxGeometry>
        </mxCell>
        <mxCell id="OIi_gZhFxdTAYNqeT_0--19" value="" style="shape=waypoint;sketch=0;fillStyle=solid;size=6;pointerEvents=1;points=[];fillColor=none;resizable=0;rotatable=0;perimeter=centerPerimeter;snapToPoint=1;fontFamily=Helvetica;fontSize=11;fontColor=default;" vertex="1" parent="1">
          <mxGeometry x="1250" y="619.94" width="20" height="20" as="geometry" />
        </mxCell>
        <mxCell id="OIi_gZhFxdTAYNqeT_0--22" value="" style="edgeStyle=orthogonalEdgeStyle;shape=connector;rounded=0;orthogonalLoop=1;jettySize=auto;html=1;exitX=0;exitY=0.25;exitDx=0;exitDy=0;entryDx=0;entryDy=0;entryPerimeter=0;labelBackgroundColor=default;strokeColor=default;align=center;verticalAlign=middle;fontFamily=Helvetica;fontSize=11;fontColor=default;endArrow=none;endFill=0;" edge="1" parent="1" source="OIi_gZhFxdTAYNqeT_0--6" target="OIi_gZhFxdTAYNqeT_0--21">
          <mxGeometry relative="1" as="geometry">
            <mxPoint x="1350" y="392.94" as="sourcePoint" />
            <mxPoint x="1225" y="499.94" as="targetPoint" />
          </mxGeometry>
        </mxCell>
        <mxCell id="OIi_gZhFxdTAYNqeT_0--21" value="" style="shape=waypoint;sketch=0;fillStyle=solid;size=6;pointerEvents=1;points=[];fillColor=none;resizable=0;rotatable=0;perimeter=centerPerimeter;snapToPoint=1;fontFamily=Helvetica;fontSize=11;fontColor=default;" vertex="1" parent="1">
          <mxGeometry x="1250" y="399.94" width="20" height="20" as="geometry" />
        </mxCell>
        <mxCell id="OIi_gZhFxdTAYNqeT_0--25" style="edgeStyle=orthogonalEdgeStyle;shape=connector;rounded=0;jumpStyle=arc;orthogonalLoop=1;jettySize=auto;html=1;exitX=1;exitY=0.75;exitDx=0;exitDy=0;labelBackgroundColor=default;strokeColor=default;align=center;verticalAlign=middle;fontFamily=Helvetica;fontSize=11;fontColor=default;endArrow=none;endFill=0;" edge="1" parent="1" source="OIi_gZhFxdTAYNqeT_0--23" target="OIi_gZhFxdTAYNqeT_0--19">
          <mxGeometry relative="1" as="geometry">
            <Array as="points">
              <mxPoint x="1130" y="543.94" />
              <mxPoint x="1130" y="629.94" />
            </Array>
          </mxGeometry>
        </mxCell>
        <mxCell id="OIi_gZhFxdTAYNqeT_0--34" style="edgeStyle=orthogonalEdgeStyle;shape=connector;rounded=0;jumpStyle=arc;orthogonalLoop=1;jettySize=auto;html=1;exitX=0;exitY=0.5;exitDx=0;exitDy=0;entryX=0.5;entryY=1;entryDx=0;entryDy=0;labelBackgroundColor=default;strokeColor=default;align=center;verticalAlign=middle;fontFamily=Helvetica;fontSize=11;fontColor=default;endArrow=none;endFill=0;" edge="1" parent="1" source="OIi_gZhFxdTAYNqeT_0--23" target="OIi_gZhFxdTAYNqeT_0--29">
          <mxGeometry relative="1" as="geometry" />
        </mxCell>
        <mxCell id="OIi_gZhFxdTAYNqeT_0--23" value="Ki * integral_error + Kp * phase_error" style="rounded=0;whiteSpace=wrap;html=1;fontFamily=Helvetica;fontSize=11;fontColor=default;" vertex="1" parent="1">
          <mxGeometry x="970" y="487.44" width="120" height="75" as="geometry" />
        </mxCell>
        <mxCell id="OIi_gZhFxdTAYNqeT_0--24" style="edgeStyle=orthogonalEdgeStyle;shape=connector;rounded=0;jumpStyle=arc;orthogonalLoop=1;jettySize=auto;html=1;exitX=1;exitY=0.25;exitDx=0;exitDy=0;labelBackgroundColor=default;strokeColor=default;align=center;verticalAlign=middle;fontFamily=Helvetica;fontSize=11;fontColor=default;endArrow=none;endFill=0;" edge="1" parent="1" source="OIi_gZhFxdTAYNqeT_0--23">
          <mxGeometry relative="1" as="geometry">
            <mxPoint x="1260" y="410" as="targetPoint" />
            <Array as="points">
              <mxPoint x="1130" y="505.94" />
              <mxPoint x="1130" y="409.94" />
            </Array>
          </mxGeometry>
        </mxCell>
        <mxCell id="OIi_gZhFxdTAYNqeT_0--26" value="" style="group" vertex="1" connectable="0" parent="1">
          <mxGeometry x="930" y="339.94" width="80" height="90" as="geometry" />
        </mxCell>
        <mxCell id="OIi_gZhFxdTAYNqeT_0--27" value="phase_adjust&lt;br&gt;_reg" style="rounded=0;whiteSpace=wrap;html=1;" vertex="1" parent="OIi_gZhFxdTAYNqeT_0--26">
          <mxGeometry width="80" height="90" as="geometry" />
        </mxCell>
        <mxCell id="OIi_gZhFxdTAYNqeT_0--28" value="" style="triangle;whiteSpace=wrap;html=1;rotation=-180;" vertex="1" parent="OIi_gZhFxdTAYNqeT_0--26">
          <mxGeometry x="60" y="50" width="20" height="30" as="geometry" />
        </mxCell>
        <mxCell id="OIi_gZhFxdTAYNqeT_0--39" style="edgeStyle=orthogonalEdgeStyle;shape=connector;rounded=0;jumpStyle=arc;orthogonalLoop=1;jettySize=auto;html=1;exitX=0;exitY=0.5;exitDx=0;exitDy=0;labelBackgroundColor=default;strokeColor=default;align=center;verticalAlign=middle;fontFamily=Helvetica;fontSize=11;fontColor=default;endArrow=none;endFill=0;" edge="1" parent="1" source="OIi_gZhFxdTAYNqeT_0--29" target="OIi_gZhFxdTAYNqeT_0--38">
          <mxGeometry relative="1" as="geometry" />
        </mxCell>
        <mxCell id="OIi_gZhFxdTAYNqeT_0--35" style="edgeStyle=orthogonalEdgeStyle;shape=connector;rounded=0;jumpStyle=arc;orthogonalLoop=1;jettySize=auto;html=1;exitX=0;exitY=0.25;exitDx=0;exitDy=0;entryX=0.5;entryY=0;entryDx=0;entryDy=0;labelBackgroundColor=default;strokeColor=default;align=center;verticalAlign=middle;fontFamily=Helvetica;fontSize=11;fontColor=default;endArrow=none;endFill=0;" edge="1" parent="1" source="OIi_gZhFxdTAYNqeT_0--27" target="OIi_gZhFxdTAYNqeT_0--29">
          <mxGeometry relative="1" as="geometry" />
        </mxCell>
        <mxCell id="OIi_gZhFxdTAYNqeT_0--38" value="" style="shape=waypoint;sketch=0;fillStyle=solid;size=6;pointerEvents=1;points=[];fillColor=none;resizable=0;rotatable=0;perimeter=centerPerimeter;snapToPoint=1;fontFamily=Helvetica;fontSize=11;fontColor=default;" vertex="1" parent="1">
          <mxGeometry x="810" y="497.44" width="20" height="20" as="geometry" />
        </mxCell>
        <mxCell id="OIi_gZhFxdTAYNqeT_0--40" style="edgeStyle=orthogonalEdgeStyle;shape=connector;rounded=0;jumpStyle=arc;orthogonalLoop=1;jettySize=auto;html=1;exitX=1;exitY=0.25;exitDx=0;exitDy=0;entryX=0.66;entryY=0.425;entryDx=0;entryDy=0;entryPerimeter=0;labelBackgroundColor=default;strokeColor=default;align=center;verticalAlign=middle;fontFamily=Helvetica;fontSize=11;fontColor=default;endArrow=none;endFill=0;" edge="1" parent="1" source="OIi_gZhFxdTAYNqeT_0--27" target="OIi_gZhFxdTAYNqeT_0--38">
          <mxGeometry relative="1" as="geometry">
            <Array as="points">
              <mxPoint x="1030" y="362.94" />
              <mxPoint x="1030" y="319.94" />
              <mxPoint x="820" y="319.94" />
            </Array>
          </mxGeometry>
        </mxCell>
        <mxCell id="OIi_gZhFxdTAYNqeT_0--47" value="phase_adjust" style="text;html=1;strokeColor=none;fillColor=none;align=center;verticalAlign=middle;whiteSpace=wrap;rounded=0;fontSize=11;fontFamily=Helvetica;fontColor=default;" vertex="1" parent="1">
          <mxGeometry x="750" y="479.94" width="60" height="30" as="geometry" />
        </mxCell>
        <mxCell id="OIi_gZhFxdTAYNqeT_0--49" style="edgeStyle=orthogonalEdgeStyle;shape=connector;rounded=0;jumpStyle=arc;orthogonalLoop=1;jettySize=auto;html=1;exitX=1;exitY=0.5;exitDx=0;exitDy=0;entryX=0.5;entryY=0;entryDx=0;entryDy=0;entryPerimeter=0;labelBackgroundColor=default;strokeColor=default;align=center;verticalAlign=middle;fontFamily=Helvetica;fontSize=11;fontColor=default;endArrow=none;endFill=0;" edge="1" parent="1" source="OIi_gZhFxdTAYNqeT_0--3" target="OIi_gZhFxdTAYNqeT_0--5">
          <mxGeometry relative="1" as="geometry" />
        </mxCell>
        <mxCell id="OIi_gZhFxdTAYNqeT_0--51" style="edgeStyle=orthogonalEdgeStyle;shape=connector;rounded=0;jumpStyle=arc;orthogonalLoop=1;jettySize=auto;html=1;exitX=0;exitY=0.5;exitDx=0;exitDy=0;entryX=1;entryY=0.5;entryDx=0;entryDy=0;entryPerimeter=0;labelBackgroundColor=default;strokeColor=default;align=center;verticalAlign=middle;fontFamily=Helvetica;fontSize=11;fontColor=default;endArrow=none;endFill=0;" edge="1" parent="1" source="OIi_gZhFxdTAYNqeT_0--4" target="OIi_gZhFxdTAYNqeT_0--2">
          <mxGeometry relative="1" as="geometry" />
        </mxCell>
        <mxCell id="OIi_gZhFxdTAYNqeT_0--52" value="bpsk_signal" style="text;html=1;strokeColor=none;fillColor=none;align=center;verticalAlign=middle;whiteSpace=wrap;rounded=0;fontSize=11;fontFamily=Helvetica;fontColor=default;" vertex="1" parent="1">
          <mxGeometry x="-440" y="469.94" width="60" height="30" as="geometry" />
        </mxCell>
        <mxCell id="OIi_gZhFxdTAYNqeT_0--53" style="edgeStyle=orthogonalEdgeStyle;shape=connector;rounded=0;jumpStyle=arc;orthogonalLoop=1;jettySize=auto;html=1;exitDx=0;exitDy=0;entryX=0;entryY=0.5;entryDx=0;entryDy=0;entryPerimeter=0;labelBackgroundColor=default;strokeColor=default;align=center;verticalAlign=middle;fontFamily=Helvetica;fontSize=11;fontColor=default;endArrow=none;endFill=0;" edge="1" parent="1" source="OIi_gZhFxdTAYNqeT_0--54" target="OIi_gZhFxdTAYNqeT_0--1">
          <mxGeometry relative="1" as="geometry">
            <Array as="points">
              <mxPoint x="-200" y="195" />
            </Array>
          </mxGeometry>
        </mxCell>
        <mxCell id="OIi_gZhFxdTAYNqeT_0--55" value="" style="edgeStyle=orthogonalEdgeStyle;shape=connector;rounded=0;jumpStyle=arc;orthogonalLoop=1;jettySize=auto;html=1;exitX=1;exitY=0.5;exitDx=0;exitDy=0;entryDx=0;entryDy=0;entryPerimeter=0;labelBackgroundColor=default;strokeColor=default;align=center;verticalAlign=middle;fontFamily=Helvetica;fontSize=11;fontColor=default;endArrow=none;endFill=0;" edge="1" parent="1" source="OIi_gZhFxdTAYNqeT_0--52" target="OIi_gZhFxdTAYNqeT_0--54">
          <mxGeometry relative="1" as="geometry">
            <mxPoint x="-380" y="484.5" as="sourcePoint" />
            <mxPoint x="-10" y="197.5" as="targetPoint" />
          </mxGeometry>
        </mxCell>
        <mxCell id="OIi_gZhFxdTAYNqeT_0--54" value="" style="shape=waypoint;sketch=0;fillStyle=solid;size=6;pointerEvents=1;points=[];fillColor=none;resizable=0;rotatable=0;perimeter=centerPerimeter;snapToPoint=1;fontFamily=Helvetica;fontSize=11;fontColor=default;" vertex="1" parent="1">
          <mxGeometry x="-210" y="474.94" width="20" height="20" as="geometry" />
        </mxCell>
        <mxCell id="OIi_gZhFxdTAYNqeT_0--56" style="edgeStyle=orthogonalEdgeStyle;shape=connector;rounded=0;jumpStyle=arc;orthogonalLoop=1;jettySize=auto;html=1;exitX=0;exitY=0.5;exitDx=0;exitDy=0;exitPerimeter=0;entryX=0.693;entryY=0.692;entryDx=0;entryDy=0;entryPerimeter=0;labelBackgroundColor=default;strokeColor=default;align=center;verticalAlign=middle;fontFamily=Helvetica;fontSize=11;fontColor=default;endArrow=none;endFill=0;" edge="1" parent="1" source="OIi_gZhFxdTAYNqeT_0--2" target="OIi_gZhFxdTAYNqeT_0--54">
          <mxGeometry relative="1" as="geometry" />
        </mxCell>
        <mxCell id="OIi_gZhFxdTAYNqeT_0--57" value="&lt;font style=&quot;font-size: 18px;&quot; color=&quot;#ff0000&quot;&gt;i&lt;/font&gt;" style="text;html=1;strokeColor=none;fillColor=none;align=center;verticalAlign=middle;whiteSpace=wrap;rounded=0;fontSize=11;fontFamily=Helvetica;fontColor=default;" vertex="1" parent="1">
          <mxGeometry x="-350" y="444.94" width="30" height="30" as="geometry" />
        </mxCell>
        <mxCell id="OIi_gZhFxdTAYNqeT_0--58" value="&lt;font style=&quot;font-size: 18px;&quot; color=&quot;#ff0000&quot;&gt;i&lt;/font&gt;" style="text;html=1;strokeColor=none;fillColor=none;align=center;verticalAlign=middle;whiteSpace=wrap;rounded=0;fontSize=11;fontFamily=Helvetica;fontColor=default;" vertex="1" parent="1">
          <mxGeometry x="780" y="150" width="30" height="30" as="geometry" />
        </mxCell>
        <mxCell id="OIi_gZhFxdTAYNqeT_0--59" value="&lt;font style=&quot;font-size: 18px;&quot; color=&quot;#ff0000&quot;&gt;i&lt;/font&gt;" style="text;html=1;strokeColor=none;fillColor=none;align=center;verticalAlign=middle;whiteSpace=wrap;rounded=0;fontSize=11;fontFamily=Helvetica;fontColor=default;" vertex="1" parent="1">
          <mxGeometry x="1230" y="150" width="30" height="30" as="geometry" />
        </mxCell>
        <mxCell id="OIi_gZhFxdTAYNqeT_0--60" value="&lt;font style=&quot;font-size: 18px;&quot; color=&quot;#ff0000&quot;&gt;i&lt;/font&gt;" style="text;html=1;strokeColor=none;fillColor=none;align=center;verticalAlign=middle;whiteSpace=wrap;rounded=0;fontSize=11;fontFamily=Helvetica;fontColor=default;" vertex="1" parent="1">
          <mxGeometry x="1235" y="790" width="30" height="30" as="geometry" />
        </mxCell>
        <mxCell id="OIi_gZhFxdTAYNqeT_0--61" value="&lt;font style=&quot;font-size: 18px;&quot; color=&quot;#ff0000&quot;&gt;i&lt;/font&gt;" style="text;html=1;strokeColor=none;fillColor=none;align=center;verticalAlign=middle;whiteSpace=wrap;rounded=0;fontSize=11;fontFamily=Helvetica;fontColor=default;" vertex="1" parent="1">
          <mxGeometry x="1320" y="519.94" width="30" height="30" as="geometry" />
        </mxCell>
        <mxCell id="OIi_gZhFxdTAYNqeT_0--62" value="&lt;font style=&quot;font-size: 18px;&quot; color=&quot;#ff0000&quot;&gt;i - 1&lt;/font&gt;" style="text;html=1;strokeColor=none;fillColor=none;align=center;verticalAlign=middle;whiteSpace=wrap;rounded=0;fontSize=11;fontFamily=Helvetica;fontColor=default;" vertex="1" parent="1">
          <mxGeometry x="1140" y="630" width="60" height="30" as="geometry" />
        </mxCell>
        <mxCell id="OIi_gZhFxdTAYNqeT_0--63" value="phase_adjust" style="text;html=1;strokeColor=none;fillColor=none;align=center;verticalAlign=middle;whiteSpace=wrap;rounded=0;fontSize=11;fontFamily=Helvetica;fontColor=default;" vertex="1" parent="1">
          <mxGeometry x="1140" y="600" width="60" height="30" as="geometry" />
        </mxCell>
        <mxCell id="OIi_gZhFxdTAYNqeT_0--66" value="phase_error_next" style="text;html=1;strokeColor=none;fillColor=none;align=center;verticalAlign=middle;whiteSpace=wrap;rounded=0;fontSize=11;fontFamily=Helvetica;fontColor=default;" vertex="1" parent="1">
          <mxGeometry x="1320" y="484.94" width="100" height="30" as="geometry" />
        </mxCell>
        <mxCell id="OIi_gZhFxdTAYNqeT_0--69" value="control_signal" style="text;html=1;strokeColor=none;fillColor=none;align=center;verticalAlign=middle;whiteSpace=wrap;rounded=0;fontSize=11;fontFamily=Helvetica;fontColor=default;" vertex="1" parent="1">
          <mxGeometry x="890" y="540" width="70" height="27.56" as="geometry" />
        </mxCell>
        <mxCell id="OIi_gZhFxdTAYNqeT_0--70" value="&lt;font style=&quot;font-size: 18px;&quot; color=&quot;#ff0000&quot;&gt;i - 1&lt;/font&gt;" style="text;html=1;strokeColor=none;fillColor=none;align=center;verticalAlign=middle;whiteSpace=wrap;rounded=0;fontSize=11;fontFamily=Helvetica;fontColor=default;" vertex="1" parent="1">
          <mxGeometry x="1210" y="380" width="60" height="30" as="geometry" />
        </mxCell>
        <mxCell id="OIi_gZhFxdTAYNqeT_0--71" value="&lt;font style=&quot;font-size: 18px;&quot; color=&quot;#ff0000&quot;&gt;i&amp;nbsp;&lt;/font&gt;" style="text;html=1;strokeColor=none;fillColor=none;align=center;verticalAlign=middle;whiteSpace=wrap;rounded=0;fontSize=11;fontFamily=Helvetica;fontColor=default;" vertex="1" parent="1">
          <mxGeometry x="1310" y="339.94" width="40" height="30.06" as="geometry" />
        </mxCell>
        <mxCell id="OIi_gZhFxdTAYNqeT_0--72" value="&lt;font style=&quot;font-size: 18px;&quot; color=&quot;#ff0000&quot;&gt;i&lt;/font&gt;" style="text;html=1;strokeColor=none;fillColor=none;align=center;verticalAlign=middle;whiteSpace=wrap;rounded=0;fontSize=11;fontFamily=Helvetica;fontColor=default;" vertex="1" parent="1">
          <mxGeometry x="570" y="482.38" width="30" height="30.06" as="geometry" />
        </mxCell>
        <mxCell id="OIi_gZhFxdTAYNqeT_0--73" value="&lt;font style=&quot;font-size: 18px;&quot; color=&quot;#ff0000&quot;&gt;i - 1&lt;/font&gt;" style="text;html=1;strokeColor=none;fillColor=none;align=center;verticalAlign=middle;whiteSpace=wrap;rounded=0;fontSize=11;fontFamily=Helvetica;fontColor=default;" vertex="1" parent="1">
          <mxGeometry x="860" y="334.94000000000005" width="60" height="30" as="geometry" />
        </mxCell>
        <mxCell id="OIi_gZhFxdTAYNqeT_0--74" value="&lt;font style=&quot;font-size: 18px;&quot; color=&quot;#ff0000&quot;&gt;i&lt;/font&gt;" style="text;html=1;strokeColor=none;fillColor=none;align=center;verticalAlign=middle;whiteSpace=wrap;rounded=0;fontSize=11;fontFamily=Helvetica;fontColor=default;" vertex="1" parent="1">
          <mxGeometry x="1030" y="320.00000000000006" width="30" height="30.06" as="geometry" />
        </mxCell>
        <mxCell id="OIi_gZhFxdTAYNqeT_0--75" value="&lt;font style=&quot;font-size: 18px;&quot; color=&quot;#ff0000&quot;&gt;i&lt;/font&gt;" style="text;html=1;strokeColor=none;fillColor=none;align=center;verticalAlign=middle;whiteSpace=wrap;rounded=0;fontSize=11;fontFamily=Helvetica;fontColor=default;" vertex="1" parent="1">
          <mxGeometry x="200" y="220.00000000000006" width="30" height="30.06" as="geometry" />
        </mxCell>
        <mxCell id="OIi_gZhFxdTAYNqeT_0--76" value="&lt;font style=&quot;font-size: 18px;&quot; color=&quot;#ff0000&quot;&gt;i&lt;/font&gt;" style="text;html=1;strokeColor=none;fillColor=none;align=center;verticalAlign=middle;whiteSpace=wrap;rounded=0;fontSize=11;fontFamily=Helvetica;fontColor=default;" vertex="1" parent="1">
          <mxGeometry x="200" y="770" width="30" height="30.06" as="geometry" />
        </mxCell>
        <mxCell id="OIi_gZhFxdTAYNqeT_0--77" value="" style="group" vertex="1" connectable="0" parent="1">
          <mxGeometry x="455" y="312.47" width="80" height="90" as="geometry" />
        </mxCell>
        <mxCell id="OIi_gZhFxdTAYNqeT_0--78" value="i_cosine_lu&lt;br style=&quot;border-color: var(--border-color);&quot;&gt;_angle_rads&lt;br style=&quot;border-color: var(--border-color);&quot;&gt;_reg" style="rounded=0;whiteSpace=wrap;html=1;" vertex="1" parent="OIi_gZhFxdTAYNqeT_0--77">
          <mxGeometry width="80" height="90" as="geometry" />
        </mxCell>
        <mxCell id="OIi_gZhFxdTAYNqeT_0--79" value="" style="triangle;whiteSpace=wrap;html=1;rotation=-180;" vertex="1" parent="OIi_gZhFxdTAYNqeT_0--77">
          <mxGeometry x="60" y="50" width="20" height="30" as="geometry" />
        </mxCell>
        <mxCell id="OIi_gZhFxdTAYNqeT_0--80" value="" style="group" vertex="1" connectable="0" parent="1">
          <mxGeometry x="455" y="600" width="80" height="90" as="geometry" />
        </mxCell>
        <mxCell id="OIi_gZhFxdTAYNqeT_0--81" value="q_cosine_lu&lt;br&gt;_angle_rads&lt;br&gt;_reg" style="rounded=0;whiteSpace=wrap;html=1;" vertex="1" parent="OIi_gZhFxdTAYNqeT_0--80">
          <mxGeometry width="80" height="90" as="geometry" />
        </mxCell>
        <mxCell id="OIi_gZhFxdTAYNqeT_0--82" value="" style="triangle;whiteSpace=wrap;html=1;rotation=-180;" vertex="1" parent="OIi_gZhFxdTAYNqeT_0--80">
          <mxGeometry x="60" y="50" width="20" height="30" as="geometry" />
        </mxCell>
        <mxCell id="OIi_gZhFxdTAYNqeT_0--93" style="edgeStyle=orthogonalEdgeStyle;shape=connector;rounded=0;jumpStyle=arc;orthogonalLoop=1;jettySize=auto;html=1;exitX=0.145;exitY=0.855;exitDx=0;exitDy=0;exitPerimeter=0;entryX=1;entryY=0.25;entryDx=0;entryDy=0;labelBackgroundColor=default;strokeColor=default;align=center;verticalAlign=middle;fontFamily=Helvetica;fontSize=11;fontColor=default;endArrow=none;endFill=0;" edge="1" parent="1" source="OIi_gZhFxdTAYNqeT_0--83" target="OIi_gZhFxdTAYNqeT_0--81">
          <mxGeometry relative="1" as="geometry">
            <Array as="points">
              <mxPoint x="180" y="690" />
              <mxPoint x="180" y="730" />
              <mxPoint x="555" y="730" />
              <mxPoint x="555" y="623" />
            </Array>
          </mxGeometry>
        </mxCell>
        <mxCell id="OIi_gZhFxdTAYNqeT_0--83" value="" style="verticalLabelPosition=bottom;verticalAlign=top;html=1;shape=mxgraph.flowchart.summing_function;" vertex="1" parent="1">
          <mxGeometry x="220" y="647.53" width="50" height="50" as="geometry" />
        </mxCell>
        <mxCell id="OIi_gZhFxdTAYNqeT_0--92" style="edgeStyle=orthogonalEdgeStyle;shape=connector;rounded=0;jumpStyle=arc;orthogonalLoop=1;jettySize=auto;html=1;exitX=0.145;exitY=0.145;exitDx=0;exitDy=0;exitPerimeter=0;entryX=1;entryY=0.25;entryDx=0;entryDy=0;labelBackgroundColor=default;strokeColor=default;align=center;verticalAlign=middle;fontFamily=Helvetica;fontSize=11;fontColor=default;endArrow=none;endFill=0;" edge="1" parent="1" source="OIi_gZhFxdTAYNqeT_0--84" target="OIi_gZhFxdTAYNqeT_0--78">
          <mxGeometry relative="1" as="geometry">
            <Array as="points">
              <mxPoint x="190" y="340" />
              <mxPoint x="190" y="290" />
              <mxPoint x="555" y="290" />
              <mxPoint x="555" y="335" />
            </Array>
          </mxGeometry>
        </mxCell>
        <mxCell id="OIi_gZhFxdTAYNqeT_0--84" value="" style="verticalLabelPosition=bottom;verticalAlign=top;html=1;shape=mxgraph.flowchart.summing_function;" vertex="1" parent="1">
          <mxGeometry x="220" y="332.47" width="50" height="50" as="geometry" />
        </mxCell>
        <mxCell id="OIi_gZhFxdTAYNqeT_0--85" value="Constant:&amp;nbsp;&lt;br&gt;Sampling Freq / Carrier Freq" style="rounded=0;whiteSpace=wrap;html=1;fontFamily=Helvetica;fontSize=11;fontColor=default;" vertex="1" parent="1">
          <mxGeometry x="160" y="469.94000000000005" width="170" height="60" as="geometry" />
        </mxCell>
        <mxCell id="OIi_gZhFxdTAYNqeT_0--90" style="edgeStyle=orthogonalEdgeStyle;shape=connector;rounded=0;jumpStyle=arc;orthogonalLoop=1;jettySize=auto;html=1;exitX=0.5;exitY=1;exitDx=0;exitDy=0;entryX=0.855;entryY=0.145;entryDx=0;entryDy=0;entryPerimeter=0;labelBackgroundColor=default;strokeColor=default;align=center;verticalAlign=middle;fontFamily=Helvetica;fontSize=11;fontColor=default;endArrow=none;endFill=0;" edge="1" parent="1" source="OIi_gZhFxdTAYNqeT_0--85" target="OIi_gZhFxdTAYNqeT_0--83">
          <mxGeometry relative="1" as="geometry" />
        </mxCell>
        <mxCell id="OIi_gZhFxdTAYNqeT_0--91" style="edgeStyle=orthogonalEdgeStyle;shape=connector;rounded=0;jumpStyle=arc;orthogonalLoop=1;jettySize=auto;html=1;exitX=0.5;exitY=0;exitDx=0;exitDy=0;entryX=0.855;entryY=0.855;entryDx=0;entryDy=0;entryPerimeter=0;labelBackgroundColor=default;strokeColor=default;align=center;verticalAlign=middle;fontFamily=Helvetica;fontSize=11;fontColor=default;endArrow=none;endFill=0;" edge="1" parent="1" source="OIi_gZhFxdTAYNqeT_0--85" target="OIi_gZhFxdTAYNqeT_0--84">
          <mxGeometry relative="1" as="geometry">
            <Array as="points">
              <mxPoint x="245" y="440" />
              <mxPoint x="263" y="440" />
            </Array>
          </mxGeometry>
        </mxCell>
        <mxCell id="OIi_gZhFxdTAYNqeT_0--95" value="" style="shape=waypoint;sketch=0;fillStyle=solid;size=6;pointerEvents=1;points=[];fillColor=none;resizable=0;rotatable=0;perimeter=centerPerimeter;snapToPoint=1;fontFamily=Helvetica;fontSize=11;fontColor=default;" vertex="1" parent="1">
          <mxGeometry x="350" y="325.03" width="20" height="20" as="geometry" />
        </mxCell>
        <mxCell id="OIi_gZhFxdTAYNqeT_0--96" value="" style="shape=waypoint;sketch=0;fillStyle=solid;size=6;pointerEvents=1;points=[];fillColor=none;resizable=0;rotatable=0;perimeter=centerPerimeter;snapToPoint=1;fontFamily=Helvetica;fontSize=11;fontColor=default;" vertex="1" parent="1">
          <mxGeometry x="350" y="619.94" width="20" height="20" as="geometry" />
        </mxCell>
        <mxCell id="OIi_gZhFxdTAYNqeT_0--97" style="edgeStyle=orthogonalEdgeStyle;shape=connector;rounded=0;jumpStyle=arc;orthogonalLoop=1;jettySize=auto;html=1;exitX=0;exitY=0.25;exitDx=0;exitDy=0;labelBackgroundColor=default;strokeColor=default;align=center;verticalAlign=middle;fontFamily=Helvetica;fontSize=11;fontColor=default;endArrow=none;endFill=0;" edge="1" parent="1" source="OIi_gZhFxdTAYNqeT_0--81" target="OIi_gZhFxdTAYNqeT_0--96">
          <mxGeometry relative="1" as="geometry" />
        </mxCell>
        <mxCell id="OIi_gZhFxdTAYNqeT_0--98" style="edgeStyle=orthogonalEdgeStyle;shape=connector;rounded=0;jumpStyle=arc;orthogonalLoop=1;jettySize=auto;html=1;exitX=0.855;exitY=0.855;exitDx=0;exitDy=0;exitPerimeter=0;entryX=0.482;entryY=0.735;entryDx=0;entryDy=0;entryPerimeter=0;labelBackgroundColor=default;strokeColor=default;align=center;verticalAlign=middle;fontFamily=Helvetica;fontSize=11;fontColor=default;endArrow=none;endFill=0;" edge="1" parent="1" source="OIi_gZhFxdTAYNqeT_0--83" target="OIi_gZhFxdTAYNqeT_0--96">
          <mxGeometry relative="1" as="geometry" />
        </mxCell>
        <mxCell id="OIi_gZhFxdTAYNqeT_0--99" style="edgeStyle=orthogonalEdgeStyle;shape=connector;rounded=0;jumpStyle=arc;orthogonalLoop=1;jettySize=auto;html=1;exitX=0;exitY=0.25;exitDx=0;exitDy=0;labelBackgroundColor=default;strokeColor=default;align=center;verticalAlign=middle;fontFamily=Helvetica;fontSize=11;fontColor=default;endArrow=none;endFill=0;" edge="1" parent="1" source="OIi_gZhFxdTAYNqeT_0--78" target="OIi_gZhFxdTAYNqeT_0--95">
          <mxGeometry relative="1" as="geometry" />
        </mxCell>
        <mxCell id="OIi_gZhFxdTAYNqeT_0--100" style="edgeStyle=orthogonalEdgeStyle;shape=connector;rounded=0;jumpStyle=arc;orthogonalLoop=1;jettySize=auto;html=1;exitX=0.855;exitY=0.145;exitDx=0;exitDy=0;exitPerimeter=0;entryX=-0.155;entryY=0.435;entryDx=0;entryDy=0;entryPerimeter=0;labelBackgroundColor=default;strokeColor=default;align=center;verticalAlign=middle;fontFamily=Helvetica;fontSize=11;fontColor=default;endArrow=none;endFill=0;" edge="1" parent="1" source="OIi_gZhFxdTAYNqeT_0--84" target="OIi_gZhFxdTAYNqeT_0--95">
          <mxGeometry relative="1" as="geometry" />
        </mxCell>
        <mxCell id="OIi_gZhFxdTAYNqeT_0--101" value="cosine LUT" style="rounded=0;whiteSpace=wrap;html=1;fontFamily=Helvetica;fontSize=11;fontColor=default;" vertex="1" parent="1">
          <mxGeometry x="-90" y="452.44" width="120" height="60" as="geometry" />
        </mxCell>
        <mxCell id="OIi_gZhFxdTAYNqeT_0--105" value="" style="group" vertex="1" connectable="0" parent="1">
          <mxGeometry x="870" y="487.44" width="40" height="40.00000000000006" as="geometry" />
        </mxCell>
        <mxCell id="OIi_gZhFxdTAYNqeT_0--29" value="" style="ellipse;whiteSpace=wrap;html=1;aspect=fixed;fontFamily=Helvetica;fontSize=11;fontColor=default;" vertex="1" parent="OIi_gZhFxdTAYNqeT_0--105">
          <mxGeometry width="40" height="40" as="geometry" />
        </mxCell>
        <mxCell id="OIi_gZhFxdTAYNqeT_0--64" value="" style="endArrow=none;html=1;rounded=0;labelBackgroundColor=default;strokeColor=default;align=center;verticalAlign=middle;fontFamily=Helvetica;fontSize=11;fontColor=default;shape=connector;edgeStyle=orthogonalEdgeStyle;jumpStyle=arc;" edge="1" parent="OIi_gZhFxdTAYNqeT_0--105">
          <mxGeometry width="50" height="50" relative="1" as="geometry">
            <mxPoint x="11.25" y="20.060000000000002" as="sourcePoint" />
            <mxPoint x="28.75" y="19.899999999999977" as="targetPoint" />
            <Array as="points">
              <mxPoint x="19.75" y="19.899999999999977" />
            </Array>
          </mxGeometry>
        </mxCell>
        <mxCell id="OIi_gZhFxdTAYNqeT_0--106" value="" style="group" vertex="1" connectable="0" parent="1">
          <mxGeometry x="340" y="399.94" width="40" height="40.00000000000006" as="geometry" />
        </mxCell>
        <mxCell id="OIi_gZhFxdTAYNqeT_0--107" value="" style="ellipse;whiteSpace=wrap;html=1;aspect=fixed;fontFamily=Helvetica;fontSize=11;fontColor=default;" vertex="1" parent="OIi_gZhFxdTAYNqeT_0--106">
          <mxGeometry width="40" height="40" as="geometry" />
        </mxCell>
        <mxCell id="OIi_gZhFxdTAYNqeT_0--108" value="" style="endArrow=none;html=1;rounded=0;labelBackgroundColor=default;strokeColor=default;align=center;verticalAlign=middle;fontFamily=Helvetica;fontSize=11;fontColor=default;shape=connector;edgeStyle=orthogonalEdgeStyle;jumpStyle=arc;" edge="1" parent="OIi_gZhFxdTAYNqeT_0--106">
          <mxGeometry width="50" height="50" relative="1" as="geometry">
            <mxPoint x="11.25" y="20.060000000000002" as="sourcePoint" />
            <mxPoint x="28.75" y="19.899999999999977" as="targetPoint" />
            <Array as="points">
              <mxPoint x="19.75" y="19.899999999999977" />
            </Array>
          </mxGeometry>
        </mxCell>
        <mxCell id="OIi_gZhFxdTAYNqeT_0--109" value="" style="group" vertex="1" connectable="0" parent="1">
          <mxGeometry x="340" y="549.94" width="40" height="40.00000000000006" as="geometry" />
        </mxCell>
        <mxCell id="OIi_gZhFxdTAYNqeT_0--116" style="edgeStyle=orthogonalEdgeStyle;shape=connector;rounded=0;jumpStyle=arc;orthogonalLoop=1;jettySize=auto;html=1;exitX=0.5;exitY=1;exitDx=0;exitDy=0;labelBackgroundColor=default;strokeColor=default;align=center;verticalAlign=middle;fontFamily=Helvetica;fontSize=11;fontColor=default;endArrow=none;endFill=0;" edge="1" parent="OIi_gZhFxdTAYNqeT_0--109" source="OIi_gZhFxdTAYNqeT_0--110">
          <mxGeometry relative="1" as="geometry">
            <mxPoint x="20.090909090909236" y="80.05999999999995" as="targetPoint" />
          </mxGeometry>
        </mxCell>
        <mxCell id="OIi_gZhFxdTAYNqeT_0--110" value="" style="ellipse;whiteSpace=wrap;html=1;aspect=fixed;fontFamily=Helvetica;fontSize=11;fontColor=default;" vertex="1" parent="OIi_gZhFxdTAYNqeT_0--109">
          <mxGeometry width="40" height="40" as="geometry" />
        </mxCell>
        <mxCell id="OIi_gZhFxdTAYNqeT_0--111" value="" style="endArrow=none;html=1;rounded=0;labelBackgroundColor=default;strokeColor=default;align=center;verticalAlign=middle;fontFamily=Helvetica;fontSize=11;fontColor=default;shape=connector;edgeStyle=orthogonalEdgeStyle;jumpStyle=arc;" edge="1" parent="OIi_gZhFxdTAYNqeT_0--109">
          <mxGeometry width="50" height="50" relative="1" as="geometry">
            <mxPoint x="11.25" y="20.060000000000002" as="sourcePoint" />
            <mxPoint x="28.75" y="19.899999999999977" as="targetPoint" />
            <Array as="points">
              <mxPoint x="19.75" y="19.899999999999977" />
            </Array>
          </mxGeometry>
        </mxCell>
        <mxCell id="OIi_gZhFxdTAYNqeT_0--112" style="edgeStyle=orthogonalEdgeStyle;shape=connector;rounded=0;jumpStyle=arc;orthogonalLoop=1;jettySize=auto;html=1;exitDx=0;exitDy=0;labelBackgroundColor=default;strokeColor=default;align=center;verticalAlign=middle;fontFamily=Helvetica;fontSize=11;fontColor=default;endArrow=none;endFill=0;" edge="1" parent="1" source="OIi_gZhFxdTAYNqeT_0--113" target="OIi_gZhFxdTAYNqeT_0--38">
          <mxGeometry relative="1" as="geometry">
            <Array as="points">
              <mxPoint x="600" y="434" />
              <mxPoint x="600" y="507" />
            </Array>
          </mxGeometry>
        </mxCell>
        <mxCell id="OIi_gZhFxdTAYNqeT_0--114" value="" style="edgeStyle=orthogonalEdgeStyle;shape=connector;rounded=0;jumpStyle=arc;orthogonalLoop=1;jettySize=auto;html=1;exitX=1;exitY=1;exitDx=0;exitDy=0;labelBackgroundColor=default;strokeColor=default;align=center;verticalAlign=middle;fontFamily=Helvetica;fontSize=11;fontColor=default;endArrow=none;endFill=0;" edge="1" parent="1" source="OIi_gZhFxdTAYNqeT_0--107" target="OIi_gZhFxdTAYNqeT_0--113">
          <mxGeometry relative="1" as="geometry">
            <mxPoint x="374" y="434" as="sourcePoint" />
            <mxPoint x="820" y="507" as="targetPoint" />
            <Array as="points" />
          </mxGeometry>
        </mxCell>
        <mxCell id="OIi_gZhFxdTAYNqeT_0--113" value="" style="shape=waypoint;sketch=0;fillStyle=solid;size=6;pointerEvents=1;points=[];fillColor=none;resizable=0;rotatable=0;perimeter=centerPerimeter;snapToPoint=1;fontFamily=Helvetica;fontSize=11;fontColor=default;" vertex="1" parent="1">
          <mxGeometry x="590" y="497.44" width="20" height="20" as="geometry" />
        </mxCell>
        <mxCell id="OIi_gZhFxdTAYNqeT_0--115" style="edgeStyle=orthogonalEdgeStyle;shape=connector;rounded=0;jumpStyle=arc;orthogonalLoop=1;jettySize=auto;html=1;exitX=1;exitY=0;exitDx=0;exitDy=0;entryX=0.656;entryY=0.905;entryDx=0;entryDy=0;entryPerimeter=0;labelBackgroundColor=default;strokeColor=default;align=center;verticalAlign=middle;fontFamily=Helvetica;fontSize=11;fontColor=default;endArrow=none;endFill=0;" edge="1" parent="1" source="OIi_gZhFxdTAYNqeT_0--110" target="OIi_gZhFxdTAYNqeT_0--113">
          <mxGeometry relative="1" as="geometry" />
        </mxCell>
        <mxCell id="OIi_gZhFxdTAYNqeT_0--118" style="edgeStyle=orthogonalEdgeStyle;shape=connector;rounded=0;jumpStyle=arc;orthogonalLoop=1;jettySize=auto;html=1;exitX=0.5;exitY=0;exitDx=0;exitDy=0;entryX=0.565;entryY=0.708;entryDx=0;entryDy=0;entryPerimeter=0;labelBackgroundColor=default;strokeColor=default;align=center;verticalAlign=middle;fontFamily=Helvetica;fontSize=11;fontColor=default;endArrow=none;endFill=0;" edge="1" parent="1" source="OIi_gZhFxdTAYNqeT_0--107" target="OIi_gZhFxdTAYNqeT_0--95">
          <mxGeometry relative="1" as="geometry" />
        </mxCell>
        <mxCell id="OIi_gZhFxdTAYNqeT_0--119" style="edgeStyle=orthogonalEdgeStyle;shape=connector;rounded=0;jumpStyle=arc;orthogonalLoop=1;jettySize=auto;html=1;exitX=0;exitY=0.5;exitDx=0;exitDy=0;entryX=1;entryY=0.75;entryDx=0;entryDy=0;labelBackgroundColor=default;strokeColor=default;align=center;verticalAlign=middle;fontFamily=Helvetica;fontSize=11;fontColor=default;endArrow=none;endFill=0;" edge="1" parent="1" source="OIi_gZhFxdTAYNqeT_0--110" target="OIi_gZhFxdTAYNqeT_0--101">
          <mxGeometry relative="1" as="geometry">
            <Array as="points">
              <mxPoint x="100" y="570" />
              <mxPoint x="100" y="500" />
              <mxPoint x="30" y="500" />
            </Array>
          </mxGeometry>
        </mxCell>
        <mxCell id="OIi_gZhFxdTAYNqeT_0--120" style="edgeStyle=orthogonalEdgeStyle;shape=connector;rounded=0;jumpStyle=arc;orthogonalLoop=1;jettySize=auto;html=1;exitX=0;exitY=0.5;exitDx=0;exitDy=0;entryX=1;entryY=0.25;entryDx=0;entryDy=0;labelBackgroundColor=default;strokeColor=default;align=center;verticalAlign=middle;fontFamily=Helvetica;fontSize=11;fontColor=default;endArrow=none;endFill=0;" edge="1" parent="1" source="OIi_gZhFxdTAYNqeT_0--107" target="OIi_gZhFxdTAYNqeT_0--101">
          <mxGeometry relative="1" as="geometry">
            <Array as="points">
              <mxPoint x="100" y="420" />
              <mxPoint x="100" y="467" />
            </Array>
          </mxGeometry>
        </mxCell>
        <mxCell id="OIi_gZhFxdTAYNqeT_0--121" style="edgeStyle=orthogonalEdgeStyle;shape=connector;rounded=0;jumpStyle=arc;orthogonalLoop=1;jettySize=auto;html=1;exitX=0.5;exitY=0;exitDx=0;exitDy=0;entryX=0.5;entryY=1;entryDx=0;entryDy=0;entryPerimeter=0;labelBackgroundColor=default;strokeColor=default;align=center;verticalAlign=middle;fontFamily=Helvetica;fontSize=11;fontColor=default;endArrow=none;endFill=0;" edge="1" parent="1" source="OIi_gZhFxdTAYNqeT_0--101" target="OIi_gZhFxdTAYNqeT_0--1">
          <mxGeometry relative="1" as="geometry">
            <Array as="points">
              <mxPoint x="-30" y="336" />
              <mxPoint x="100" y="336" />
              <mxPoint x="100" y="250" />
              <mxPoint x="225" y="250" />
            </Array>
          </mxGeometry>
        </mxCell>
        <mxCell id="OIi_gZhFxdTAYNqeT_0--122" style="edgeStyle=orthogonalEdgeStyle;shape=connector;rounded=0;jumpStyle=arc;orthogonalLoop=1;jettySize=auto;html=1;exitX=0.5;exitY=1;exitDx=0;exitDy=0;entryX=0.5;entryY=0;entryDx=0;entryDy=0;entryPerimeter=0;labelBackgroundColor=default;strokeColor=default;align=center;verticalAlign=middle;fontFamily=Helvetica;fontSize=11;fontColor=default;endArrow=none;endFill=0;" edge="1" parent="1" source="OIi_gZhFxdTAYNqeT_0--101" target="OIi_gZhFxdTAYNqeT_0--2">
          <mxGeometry relative="1" as="geometry">
            <Array as="points">
              <mxPoint x="-30" y="661" />
              <mxPoint x="100" y="661" />
              <mxPoint x="100" y="770" />
              <mxPoint x="225" y="770" />
            </Array>
          </mxGeometry>
        </mxCell>
        <mxCell id="OIi_gZhFxdTAYNqeT_0--123" value="&lt;font style=&quot;font-size: 18px;&quot; color=&quot;#ff0000&quot;&gt;i + 1&lt;/font&gt;" style="text;html=1;strokeColor=none;fillColor=none;align=center;verticalAlign=middle;whiteSpace=wrap;rounded=0;fontSize=11;fontFamily=Helvetica;fontColor=default;" vertex="1" parent="1">
          <mxGeometry x="510" y="260" width="60" height="30.06" as="geometry" />
        </mxCell>
        <mxCell id="OIi_gZhFxdTAYNqeT_0--124" value="&lt;font style=&quot;font-size: 18px;&quot; color=&quot;#ff0000&quot;&gt;i + 1&lt;/font&gt;" style="text;html=1;strokeColor=none;fillColor=none;align=center;verticalAlign=middle;whiteSpace=wrap;rounded=0;fontSize=11;fontFamily=Helvetica;fontColor=default;" vertex="1" parent="1">
          <mxGeometry x="510" y="730" width="60" height="30.06" as="geometry" />
        </mxCell>
        <mxCell id="OIi_gZhFxdTAYNqeT_0--125" value="&lt;font style=&quot;font-size: 18px;&quot; color=&quot;#ff0000&quot;&gt;i&lt;/font&gt;" style="text;html=1;strokeColor=none;fillColor=none;align=center;verticalAlign=middle;whiteSpace=wrap;rounded=0;fontSize=11;fontFamily=Helvetica;fontColor=default;" vertex="1" parent="1">
          <mxGeometry x="30" y="467.38" width="30" height="30.06" as="geometry" />
        </mxCell>
        <mxCell id="OIi_gZhFxdTAYNqeT_0--126" value="&lt;font style=&quot;font-size: 18px;&quot; color=&quot;#ff0000&quot;&gt;i&lt;/font&gt;" style="text;html=1;strokeColor=none;fillColor=none;align=center;verticalAlign=middle;whiteSpace=wrap;rounded=0;fontSize=11;fontFamily=Helvetica;fontColor=default;" vertex="1" parent="1">
          <mxGeometry x="425" y="334.88" width="30" height="30.06" as="geometry" />
        </mxCell>
        <mxCell id="OIi_gZhFxdTAYNqeT_0--127" value="&lt;font style=&quot;font-size: 18px;&quot; color=&quot;#ff0000&quot;&gt;i&lt;/font&gt;" style="text;html=1;strokeColor=none;fillColor=none;align=center;verticalAlign=middle;whiteSpace=wrap;rounded=0;fontSize=11;fontFamily=Helvetica;fontColor=default;" vertex="1" parent="1">
          <mxGeometry x="425" y="619.94" width="30" height="30.06" as="geometry" />
        </mxCell>
      </root>
    </mxGraphModel>
  </diagram>
</mxfile>
